<svg width="105" height="1170" viewBox="0 0 105 1170" fill="none" xmlns="http://www.w3.org/2000/svg">
<path d="M52.728 45.5L56.824 45.5L56.824 68.54L52.728 68.54L52.728 45.5ZM52.728 95.07L56.824 95.07L56.824 118.11L52.728 118.11L52.728 95.07ZM52.728 144.64L56.824 144.64L56.824 167.68L52.728 167.68L52.728 144.64ZM52.728 194.21L56.824 194.21L56.824 217.25L52.728 217.25L52.728 194.21ZM52.728 243.78L56.824 243.78L56.824 266.82L52.728 266.82L52.728 243.78ZM52.728 293.35L56.824 293.35L56.824 316.39L52.728 316.39L52.728 293.35ZM52.728 342.92L56.824 342.92L56.824 365.96L52.728 365.96L52.728 342.92ZM52.728 392.49L56.824 392.49L56.824 415.53L52.728 415.53L52.728 392.49Z" fill="white"/>
<path d="M52.728 413.5L56.824 413.5L56.824 436.54L52.728 436.54L52.728 413.5ZM52.728 463.07L56.824 463.07L56.824 486.11L52.728 486.11L52.728 463.07ZM52.728 512.64L56.824 512.64L56.824 535.68L52.728 535.68L52.728 512.64ZM52.728 562.21L56.824 562.21L56.824 585.25L52.728 585.25L52.728 562.21ZM52.728 611.78L56.824 611.78L56.824 634.82L52.728 634.82L52.728 611.78ZM52.728 661.35L56.824 661.35L56.824 684.39L52.728 684.39L52.728 661.35ZM52.728 710.92L56.824 710.92L56.824 733.96L52.728 733.96L52.728 710.92ZM52.728 760.49L56.824 760.49L56.824 783.53L52.728 783.53L52.728 760.49Z" fill="white"/>
<path d="M52.728 763.5L56.824 763.5L56.824 786.54L52.728 786.54L52.728 763.5ZM52.728 813.07L56.824 813.07L56.824 836.11L52.728 836.11L52.728 813.07ZM52.728 862.64L56.824 862.64L56.824 885.68L52.728 885.68L52.728 862.64ZM52.728 912.21L56.824 912.21L56.824 935.25L52.728 935.25L52.728 912.21ZM52.728 961.78L56.824 961.78L56.824 984.82L52.728 984.82L52.728 961.78ZM52.728 1011.35L56.824 1011.35L56.824 1034.39L52.728 1034.39L52.728 1011.35ZM52.728 1060.92L56.824 1060.92L56.824 1083.96L52.728 1083.96L52.728 1060.92ZM52.728 1110.49L56.824 1110.49L56.824 1133.53L52.728 1133.53L52.728 1110.49Z" fill="white"/>
<rect width="105" height="105" rx="35" fill="white" fill-opacity="0.2"/>
<rect x="28" y="28" width="50" height="50" rx="18" fill="white"/>
<rect y="355" width="105" height="105" rx="35" fill="white" fill-opacity="0.2"/>
<rect x="28" y="383" width="50" height="50" rx="18" fill="white"/>
<rect y="710" width="105" height="105" rx="35" fill="white" fill-opacity="0.2"/>
<rect x="28" y="738" width="50" height="50" rx="18" fill="white"/>
<rect y="1065" width="105" height="105" rx="35" fill="white" fill-opacity="0.2"/>
<rect x="28" y="1093" width="50" height="50" rx="18" fill="white"/>
</svg>
